<svg data-v-423bf9ae="" xmlns="http://www.w3.org/2000/svg" viewBox="0 0 154.17965183532405 163" class="iconAbove"><!----><defs data-v-423bf9ae=""><linearGradient data-v-423bf9ae="" gradientTransform="rotate(25)" id="ca8a2988-b1b7-4570-92c1-dda2f2ffb911" x1="0%" y1="0%" x2="100%" y2="0%"><stop data-v-423bf9ae="" offset="0%" style="stop-color: rgb(26, 20, 57); stop-opacity: 1;"></stop><stop data-v-423bf9ae="" offset="100%" style="stop-color: rgb(203, 159, 152); stop-opacity: 1;"></stop></linearGradient></defs><!----><g data-v-423bf9ae="" id="d5a8cdce-c9af-49fd-be6b-f18620023504" fill="#ffffff" transform="matrix(6.389541857047536,0,0,6.389541857047536,-0.8306370029345373,81.4694479652315)"><path d="M3.79 6.32L5.25 9.87L4.60 11.11L1.63 4.25L1.63 4.25Q1.39 3.84 1.00 4.31L1.00 4.31L0.13 5.24L0.25 5.52L0.25 5.52Q0.53 4.87 1.13 6.32L1.13 6.32L3.92 12.69L4.20 12.69L5.49 10.26L6.59 12.69L6.86 12.69L7.47 11.59L7.47 11.59Q9.32 8.10 9.52 6.86L9.52 6.86L9.52 6.86Q9.71 5.62 9.28 4.77L9.28 4.77L9.28 4.77Q8.86 3.92 7.97 3.55L7.97 3.55L7.97 3.55Q7.09 3.19 6.37 4.88L6.37 4.88L6.53 5.05L6.53 5.05Q7.03 4.09 8.06 5.64L8.06 5.64L8.06 5.64Q9.09 7.19 8.23 9.15L8.23 9.15L7.27 11.11L4.30 4.25L4.30 4.25Q4.05 3.84 3.66 4.31L3.66 4.31L2.80 5.24L2.92 5.52L2.92 5.52Q3.20 4.87 3.79 6.32L3.79 6.32ZM13.82 3.37L13.82 3.37L13.82 3.37Q13.47 3.37 13.26 3.53L13.26 3.53L13.26 3.53Q13.04 3.68 12.26 4.68L12.26 4.68L12.54 4.89L12.54 4.89Q13.00 4.20 13.30 4.22L13.30 4.22L13.30 4.22Q13.60 4.25 13.76 5.20L13.76 5.20L12.09 8.38L11.46 8.38L10.41 9.40L10.50 9.54L10.50 9.54Q11.21 9.38 11.74 9.43L11.74 9.43L11.74 9.43Q11.09 10.79 10.79 11.34L10.79 11.34L10.79 11.34Q10.49 11.88 9.99 12.50L9.99 12.50L10.03 12.69L12.24 12.68L12.93 11.73L11.14 11.72L11.14 11.72Q11.63 11.47 12.56 9.45L12.56 9.45L14.69 9.39L15.07 9.08L15.07 9.08Q15.97 11.62 16.31 12.11L16.31 12.11L16.31 12.11Q16.65 12.61 17.06 12.76L17.06 12.76L17.76 11.93L17.76 11.93Q16.89 11.35 15.75 7.63L15.75 7.63L15.75 7.63Q14.60 3.91 14.38 3.64L14.38 3.64L14.38 3.64Q14.16 3.36 13.82 3.37ZM14.09 5.99L14.86 8.44L12.91 8.43L14.09 5.99ZM19.45 4.34L19.50 4.76L19.50 4.76Q20.35 3.82 21.15 4.44L21.15 4.44L21.15 4.44Q21.96 5.06 21.78 6.12L21.78 6.12L21.78 6.12Q21.59 7.18 20.36 7.69L20.36 7.69L19.52 8.11L19.49 4.25L19.49 4.25Q19.37 3.90 18.79 3.53L18.79 3.53L17.91 4.24L17.98 4.44L17.98 4.44Q18.45 4.14 18.37 5.61L18.37 5.61L18.37 11.22L18.37 11.22Q18.35 12.38 19.15 12.76L19.15 12.76L20.13 11.84L20.00 11.58L20.00 11.58Q19.58 11.93 19.51 10.95L19.51 10.95L19.52 8.50L19.52 8.50Q20.78 7.85 22.35 11.88L22.35 11.88L22.35 11.88Q22.78 12.74 23.55 12.72L23.55 12.72L24.26 11.84L24.16 11.59L24.16 11.59Q23.70 12.20 22.80 10.02L22.80 10.02L22.80 10.02Q21.91 7.83 20.71 7.88L20.71 7.88L20.71 7.88Q22.10 7.49 22.73 6.53L22.73 6.53L22.73 6.53Q23.35 5.57 22.96 4.66L22.96 4.66L22.96 4.66Q22.57 3.75 21.50 3.55L21.50 3.55L21.50 3.55Q20.43 3.35 19.45 4.34L19.45 4.34Z"></path></g><!----><g data-v-423bf9ae="" id="2b4f94d4-0a1b-4af2-afea-08785b5211d9" transform="matrix(1.1578573561291212,0,0,1.1578573561291212,19.7766082553416,-12.769218607602816)" stroke="none" fill="#ffffff"><path d="M31.505 85.939a4.218 4.218 0 0 1-5.512-2.266L4.498 32.19a4.218 4.218 0 0 1 2.265-5.513L36.64 14.203a4.22 4.22 0 0 1 5.513 2.266l5.808 13.913 1.122-4.25-4.464-10.693a6.895 6.895 0 0 0-9.009-3.702L5.733 24.211a6.895 6.895 0 0 0-3.702 9.009l21.495 51.485c1.463 3.505 5.505 5.163 9.009 3.701l11.42-4.77a10.206 10.206 0 0 1-3.075-1.611l-9.375 3.914z"></path><path d="M40.652 56.375l.13-.458s-2.204.119-3.819-1.373c-.683-.633-1.294-1.578-1.777-2.594.991 1.163 2.811 1.562 4.271.95a3.44 3.44 0 1 0-2.651-6.348c-1.405.585-2.38 2.065-2.338 3.531a9.375 9.375 0 0 1-.308-1.379c1.352-.936 1.844-2.926 1.192-4.487a3.44 3.44 0 1 0-6.35 2.651c.655 1.568 2.43 2.621 4.054 2.301.262.345.522.757.767 1.21-1.01-1.076-2.761-1.431-4.174-.84a3.442 3.442 0 0 0 2.651 6.352c1.449-.607 2.441-2.164 2.328-3.676.359 1.024.591 2.104.583 3.061-.015 2.199-1.708 3.682-1.708 3.682l.003-.001.336.262c3.724-3.367 6.81-2.844 6.81-2.844M13.017 33.03a1.855 1.855 0 1 0-1.429-3.425c-.757.317-1.283 1.115-1.26 1.905a5.043 5.043 0 0 1-.167-.744c.729-.504.995-1.578.643-2.419a1.856 1.856 0 0 0-3.425 1.429c.353.845 1.311 1.413 2.185 1.241.142.187.283.409.414.653-.544-.581-1.488-.771-2.25-.453a1.855 1.855 0 0 0 1.429 3.424c.783-.327 1.318-1.166 1.256-1.981.194.552.319 1.134.315 1.649-.007 1.188-.921 1.985-.921 1.985h.002l.181.142c2.009-1.817 3.673-1.534 3.673-1.534l.069-.247s-1.188.063-2.059-.74c-.369-.341-.699-.852-.959-1.4.535.628 1.515.844 2.303.515M94.074 22.804L62.77 14.546c-2.953-.779-6.004.999-6.783 3.951L52.08 33.309l-1.12 4.25-9.204 34.884c-.777 2.951 1.001 6.005 3.952 6.783l1.151.304 4.251 1.122 25.902 6.832c2.95.779 6.002-.998 6.781-3.95l14.232-53.948c.78-2.952-1-6.003-3.951-6.782m-35.842-1.006c.088-.753.4-1.394 1.004-1.881.759-.611 1.596-1.094 2.477-1.497.51-.233 1.032-.428 1.551-.642.06-.024.1-.027.147.027.838.97 1.594 2 2.147 3.164.113.236.211.48.315.72.263.616.229 1.237.042 1.863a1.763 1.763 0 0 1-.35.661c-.592.675-1.375 1.101-2.471.729-.564-.193-.968-.584-1.224-1.12 0 .386.063.746.163 1.072.378 1.211 1.268 1.967 1.268 1.967l-.219.163s-1.229-1.32-4.113-1.085l-.062-.237-.002-.001s1.148-.218 2.072-1.086a3.53 3.53 0 0 0 .656-.826c-.183.096-.359.194-.546.261-1.453.526-3.032-.717-2.855-2.252m11.351 34.418c.707 2.276 2.379 3.695 2.379 3.695l-.414.309s-2.308-2.48-7.728-2.04l-.115-.445-.004-.002s2.156-.41 3.893-2.041c.458-.428.883-.94 1.235-1.553-.345.184-.679.364-1.029.492-2.739.985-5.702-1.352-5.368-4.234.164-1.416.752-2.619 1.885-3.534 1.427-1.149 2.996-2.058 4.65-2.813.956-.436 1.943-.805 2.914-1.205.109-.046.188-.053.279.052 1.578 1.823 2.992 3.757 4.037 5.944.211.444.396.901.592 1.353.496 1.156.436 2.324.079 3.501-.14.457-.337.885-.65 1.242-1.114 1.266-2.589 2.066-4.646 1.367-1.062-.361-1.817-1.097-2.299-2.104a6.666 6.666 0 0 0 .31 2.016M81.548 80.23c-.089.754-.399 1.395-1.004 1.884a11.496 11.496 0 0 1-2.476 1.495c-.508.231-1.033.428-1.549.642-.061.024-.101.028-.149-.026-.841-.972-1.593-1.998-2.147-3.164-.111-.235-.213-.479-.315-.72-.265-.616-.23-1.237-.042-1.862.072-.244.179-.473.348-.662.596-.674 1.377-1.101 2.473-.729.562.192.967.583 1.223 1.119a3.553 3.553 0 0 0-.163-1.072c-.379-1.209-1.267-1.967-1.267-1.967l.219-.163s1.229 1.32 4.111 1.085l.062.236.002.002s-1.146.218-2.071 1.087a3.585 3.585 0 0 0-.659.825c.186-.098.361-.194.551-.262 1.451-.524 3.032.72 2.853 2.252"></path></g><!----></svg>