<svg data-v-423bf9ae="" xmlns="http://www.w3.org/2000/svg" viewBox="0 0 154.17965183532405 60" class="font"><!----><!----><!----><g data-v-423bf9ae="" id="cc1e7ca5-574d-4c29-98e8-2ab2101bc86f" fill="white" transform="matrix(6.389541857047536,0,0,6.389541857047536,-0.8306370029345373,-21.530552034768498)"><path d="M3.79 6.32L5.25 9.87L4.60 11.11L1.63 4.25L1.63 4.25Q1.39 3.84 1.00 4.31L1.00 4.31L0.13 5.24L0.25 5.52L0.25 5.52Q0.53 4.87 1.13 6.32L1.13 6.32L3.92 12.69L4.20 12.69L5.49 10.26L6.59 12.69L6.86 12.69L7.47 11.59L7.47 11.59Q9.32 8.10 9.52 6.86L9.52 6.86L9.52 6.86Q9.71 5.62 9.28 4.77L9.28 4.77L9.28 4.77Q8.86 3.92 7.97 3.55L7.97 3.55L7.97 3.55Q7.09 3.19 6.37 4.88L6.37 4.88L6.53 5.05L6.53 5.05Q7.03 4.09 8.06 5.64L8.06 5.64L8.06 5.64Q9.09 7.19 8.23 9.15L8.23 9.15L7.27 11.11L4.30 4.25L4.30 4.25Q4.05 3.84 3.66 4.31L3.66 4.31L2.80 5.24L2.92 5.52L2.92 5.52Q3.20 4.87 3.79 6.32L3.79 6.32ZM13.82 3.37L13.82 3.37L13.82 3.37Q13.47 3.37 13.26 3.53L13.26 3.53L13.26 3.53Q13.04 3.68 12.26 4.68L12.26 4.68L12.54 4.89L12.54 4.89Q13.00 4.20 13.30 4.22L13.30 4.22L13.30 4.22Q13.60 4.25 13.76 5.20L13.76 5.20L12.09 8.38L11.46 8.38L10.41 9.40L10.50 9.54L10.50 9.54Q11.21 9.38 11.74 9.43L11.74 9.43L11.74 9.43Q11.09 10.79 10.79 11.34L10.79 11.34L10.79 11.34Q10.49 11.88 9.99 12.50L9.99 12.50L10.03 12.69L12.24 12.68L12.93 11.73L11.14 11.72L11.14 11.72Q11.63 11.47 12.56 9.45L12.56 9.45L14.69 9.39L15.07 9.08L15.07 9.08Q15.97 11.62 16.31 12.11L16.31 12.11L16.31 12.11Q16.65 12.61 17.06 12.76L17.06 12.76L17.76 11.93L17.76 11.93Q16.89 11.35 15.75 7.63L15.75 7.63L15.75 7.63Q14.60 3.91 14.38 3.64L14.38 3.64L14.38 3.64Q14.16 3.36 13.82 3.37ZM14.09 5.99L14.86 8.44L12.91 8.43L14.09 5.99ZM19.45 4.34L19.50 4.76L19.50 4.76Q20.35 3.82 21.15 4.44L21.15 4.44L21.15 4.44Q21.96 5.06 21.78 6.12L21.78 6.12L21.78 6.12Q21.59 7.18 20.36 7.69L20.36 7.69L19.52 8.11L19.49 4.25L19.49 4.25Q19.37 3.90 18.79 3.53L18.79 3.53L17.91 4.24L17.98 4.44L17.98 4.44Q18.45 4.14 18.37 5.61L18.37 5.61L18.37 11.22L18.37 11.22Q18.35 12.38 19.15 12.76L19.15 12.76L20.13 11.84L20.00 11.58L20.00 11.58Q19.58 11.93 19.51 10.95L19.51 10.95L19.52 8.50L19.52 8.50Q20.78 7.85 22.35 11.88L22.35 11.88L22.35 11.88Q22.78 12.74 23.55 12.72L23.55 12.72L24.26 11.84L24.16 11.59L24.16 11.59Q23.70 12.20 22.80 10.02L22.80 10.02L22.80 10.02Q21.91 7.83 20.71 7.88L20.71 7.88L20.71 7.88Q22.10 7.49 22.73 6.53L22.73 6.53L22.73 6.53Q23.35 5.57 22.96 4.66L22.96 4.66L22.96 4.66Q22.57 3.75 21.50 3.55L21.50 3.55L21.50 3.55Q20.43 3.35 19.45 4.34L19.45 4.34Z"></path></g><!----><!----></svg>